<?xml version="1.0" standalone="no"?>
<!DOCTYPE svg PUBLIC "-//W3C//DTD SVG 20010904//EN"
 "http://www.w3.org/TR/2001/REC-SVG-20010904/DTD/svg10.dtd">
<svg version="1.0" xmlns="http://www.w3.org/2000/svg"
 width="1254.000000pt" height="1254.000000pt" viewBox="0 0 1254.000000 1254.000000"
 preserveAspectRatio="xMidYMid meet">

<g transform="translate(0.000000,1254.000000) scale(0.100000,-0.100000)"
fill="#000000" stroke="none">
<path d="M7073 8313 c-103 -125 -259 -313 -345 -417 -141 -169 -156 -191 -146
-210 11 -21 422 -680 593 -951 371 -589 898 -1437 1225 -1970 81 -132 195
-316 253 -410 58 -93 208 -336 335 -540 l229 -370 637 -3 636 -2 -24 37 c-13
21 -53 85 -89 143 -35 58 -109 175 -162 260 -54 85 -169 268 -255 405 -207
329 -505 805 -650 1035 -64 102 -179 284 -255 405 -199 317 -543 862 -720
1140 -84 132 -254 400 -377 595 -124 195 -308 486 -410 645 -101 160 -204 322
-229 362 -24 40 -47 72 -51 73 -4 0 -92 -102 -195 -227z"/>
<path d="M4304 7358 l-29 -33 33 29 c30 28 37 36 29 36 -2 0 -16 -15 -33 -32z"/>
<path d="M4176 7210 c-54 -60 -95 -114 -92 -118 3 -5 -4 -18 -17 -28 l-22 -19
20 25 c12 15 5 11 -18 -10 -21 -19 -35 -40 -33 -46 5 -14 -17 -37 -26 -28 -8
7 -49 -46 -43 -56 3 -4 -3 -14 -13 -21 -16 -13 -16 -12 -3 6 18 27 -58 -55
-121 -130 -28 -33 -67 -78 -87 -100 -77 -86 -130 -184 -160 -297 -38 -140 -15
-324 54 -443 71 -120 223 -218 370 -239 22 -3 193 -12 380 -21 927 -40 1110
-48 1114 -51 2 -2 -41 -55 -95 -119 -55 -64 -133 -156 -174 -205 -358 -422
-616 -712 -656 -739 -26 -17 -72 -41 -103 -53 -56 -23 -60 -23 -554 -23 l-499
0 -190 -220 c-335 -388 -492 -570 -503 -581 -33 -35 -211 -247 -213 -255 -3
-6 400 -9 1105 -7 l1108 3 71 25 c108 39 179 87 253 170 36 42 199 237 361
435 162 197 394 479 515 625 205 249 358 435 548 669 70 86 137 194 137 220 0
5 -10 12 -22 14 -21 4 -20 4 3 6 24 1 27 7 38 58 15 76 14 197 -3 258 -20 76
-72 172 -123 226 -60 64 -126 105 -221 138 l-77 26 -767 3 c-423 2 -768 5
-768 8 0 3 17 26 38 50 20 25 36 50 35 55 -2 5 3 8 10 6 6 -1 11 4 9 11 -1 8
2 11 7 7 10 -5 34 28 26 36 -2 2 10 20 27 39 l30 35 -26 -37 c-40 -56 -25 -46
30 20 27 31 40 50 30 42 -26 -21 -44 -21 -49 0 -3 14 0 17 13 15 17 -3 17 -2
2 25 l-17 29 -12 -22 c-10 -17 -12 -18 -13 -5 0 9 -12 26 -26 37 -15 12 -22
21 -17 21 5 0 14 -5 21 -12 9 -9 12 -7 12 9 0 33 -23 46 -40 23 -16 -22 -40
-26 -56 -10 -6 6 -21 13 -34 15 -13 2 -37 18 -54 34 -66 62 -100 90 -104 86
-8 -8 -28 19 -55 74 -15 30 -27 51 -27 45 -1 -9 -29 50 -34 71 -7 27 -19 44
-27 39 -5 -3 -9 -1 -9 5 0 5 -9 12 -19 16 -12 3 -21 17 -23 33 -2 19 -8 26
-20 24 -12 -2 -18 4 -18 16 0 11 -7 25 -15 32 -8 7 -15 9 -15 5 0 -5 -9 0 -20
10 -19 17 -19 19 -4 36 9 10 21 16 27 12 6 -4 7 -1 2 6 -4 8 4 24 21 42 15 16
25 29 22 29 -3 0 -49 -49 -102 -110z m14 -4 c0 -2 -8 -10 -17 -17 -16 -13 -17
-12 -4 4 13 16 21 21 21 13z m1448 -1573 c-16 -2 -40 -2 -55 0 -16 2 -3 4 27
4 30 0 43 -2 28 -4z m260 -10 c-21 -2 -55 -2 -75 0 -21 2 -4 4 37 4 41 0 58
-2 38 -4z m245 -10 c-23 -2 -64 -2 -90 0 -26 2 -7 3 42 3 50 0 71 -1 48 -3z
m215 -10 c-21 -2 -55 -2 -75 0 -21 2 -4 4 37 4 41 0 58 -2 38 -4z"/>
<path d="M4994 6728 l-19 -23 23 19 c21 18 27 26 19 26 -2 0 -12 -10 -23 -22z"/>
<path d="M4914 6638 l-29 -33 33 29 c30 28 37 36 29 36 -2 0 -16 -15 -33 -32z"/>
<path d="M6488 4406 l-178 -184 0 -391 0 -391 250 0 250 0 -2 488 c-2 326 -4
427 -8 307 -3 -99 -7 -145 -8 -102 -1 43 -6 77 -12 77 -5 0 -10 6 -10 13 0 8
-11 36 -25 63 -14 27 -25 54 -25 59 0 6 -23 44 -50 85 -27 41 -50 79 -50 84 0
5 11 24 26 43 14 18 24 33 22 33 -2 0 -83 -83 -180 -184z"/>
<path d="M5970 3863 c-52 -54 -166 -171 -253 -261 -87 -90 -157 -164 -155
-165 1 -1 117 -1 256 1 l252 3 0 259 c0 143 -2 260 -3 260 -2 0 -46 -44 -97
-97z"/>
<path d="M7070 3702 l-5 -262 185 2 185 2 -180 6 c-132 4 -157 7 -95 9 47 3
71 6 54 8 -25 3 -35 13 -57 56 -15 29 -27 58 -27 65 0 6 -6 12 -14 12 -8 0
-17 8 -19 18 -3 9 -6 -21 -8 -68 -2 -47 -6 28 -9 165 l-5 250 -5 -263z"/>
</g>
</svg>
